<svg id="图层_1" data-name="图层 1" xmlns="http://www.w3.org/2000/svg" xmlns:xlink="http://www.w3.org/1999/xlink" viewBox="0 0 128 128"><defs><style>.cls-1{fill:url(#未命名的渐变_55);}</style><radialGradient id="未命名的渐变_55" cx="64" cy="57.6" r="59.79" gradientTransform="matrix(0.03, 1, -1.33, 0.05, 138.39, -8.97)" gradientUnits="userSpaceOnUse"><stop offset="0" stop-color="#21ceca"/><stop offset="1" stop-color="#5355f5"/></radialGradient></defs><path class="cls-1" d="M94.25,59.42a40.39,40.39,0,0,0-19,11.84A40.28,40.28,0,0,0,81.4,50c0-13.71-12.69-23.43-17.3-29.81C59.57,26.38,46.8,35.81,46.8,50a40,40,0,0,0,6.87,22.46,40,40,0,0,0-19.92-13C20.15,55.55,7.58,65.24.34,67.89c4.88,6.18,10.75,21,23.94,24.81,9.77,2.78,27.78,2.72,33.24-1.41a55.89,55.89,0,0,1-17.68-1.6C30,86.9,25,78,21.27,73.85c5.26-1.53,13.93-6.33,24.06-3.44A40.9,40.9,0,0,1,55,74.26L54.86,74l.38.46a41.24,41.24,0,0,1-1-10.38c0-10.53,7-17.55,9.9-22.19,3,4.75,10.15,12,10.15,22.19A41,41,0,0,1,73,74.16l-.07.1,0,0-.06.25.33-.4a42.06,42.06,0,0,1,9.38-3.67c10.13-2.89,18.8,1.91,24.06,3.44C103,78,98,86.9,88.16,89.69c-3.61,1-12.44,2.34-17.68,1.6,8.45,5.36,23.47,4.19,33.24,1.41,13.19-3.76,19.06-18.63,23.94-24.81C120.42,65.24,107.85,55.55,94.25,59.42Z"/></svg>