<svg id="图层_1" data-name="图层 1" xmlns="http://www.w3.org/2000/svg" xmlns:xlink="http://www.w3.org/1999/xlink" viewBox="0 0 1000 1000"><defs><style>.cls-1{fill:url(#未命名的渐变_55);}.cls-2{fill:url(#未命名的渐变_54);}</style><radialGradient id="未命名的渐变_55" cx="500" cy="463.09" r="364.87" gradientTransform="matrix(0.03, 1, -1.33, 0.05, 1098.59, -57.57)" gradientUnits="userSpaceOnUse"><stop offset="0" stop-color="#21ceca"/><stop offset="1" stop-color="#5355f5"/></radialGradient><radialGradient id="未命名的渐变_54" cx="500" cy="631.17" r="68.4" gradientUnits="userSpaceOnUse"><stop offset="0" stop-color="#21ceca"/><stop offset="1" stop-color="#359ddc"/></radialGradient></defs><path class="cls-1" d="M684.6,474.21C635.11,488.3,595,516.9,569,546.48c21-33,37.21-79.06,37.21-130,0-83.67-77.47-143-105.58-181.94C472.94,272.61,395,330.15,395,416.48c0,54.67,18.64,103.69,41.9,137-25.59-32-68.12-64.1-121.53-79.31-83-23.64-159.7,35.53-203.89,51.72,29.76,37.7,65.6,128.45,146.07,151.36,59.67,17,169.54,16.62,202.9-8.56-37,3.82-85.92-3.51-107.93-9.78-59.91-17.06-90.38-71.32-113.32-96.66,32.14-9.35,85-38.62,146.83-21,22,6.26,42.37,13.47,59.18,23.47l-1-1.44c.77,1,1.55,1.91,2.32,2.84-5-18.9-6.37-40.46-6.37-63.34,0-64.27,42.63-107.12,60.43-135.46,18.08,29,61.93,73.17,61.93,135.46a249.78,249.78,0,0,1-7.39,61.39l-.39.55a2.69,2.69,0,0,0,.29-.16c-.13.52-.25,1-.38,1.56.68-.81,1.35-1.64,2-2.48,16.43-9.43,36.06-16.36,57.25-22.39,61.81-17.6,114.69,11.67,146.83,21-22.94,25.34-53.41,79.6-113.32,96.66-22,6.27-75.9,14.26-107.93,9.78,51.62,32.7,143.23,25.55,202.9,8.56,80.47-22.91,116.31-113.66,146.07-151.36C844.3,509.74,767.62,450.57,684.6,474.21Z"/><path class="cls-2" d="M529.53,668.54a29.53,29.53,0,0,1-59,0c0-5.76-1.55-31.46-40.35-37,0-.17,36.41-6.92,44.94-15.44s14.44-51.79,24.93-51.79,15.09,41.89,24.93,51.73,44.91,15.28,44.94,15.44C533.79,638.63,529.53,662.78,529.53,668.54Z"/></svg>