<svg t="1701228406040" class="icon" viewBox="0 0 1024 1024" version="1.1" xmlns="http://www.w3.org/2000/svg" p-id="6069" width="200" height="200"><path d="M860.16 655.36a122.88 122.88 0 0 0-70.8608 22.9376l-100.352-59.392A153.1904 153.1904 0 0 0 696.32 573.44a163.84 163.84 0 0 0-122.88-158.1056V320.3072a122.88 122.88 0 1 0-81.92 0v95.0272A163.84 163.84 0 0 0 368.64 573.44c0.16384 15.44192 2.62144 30.76096 7.3728 45.4656l-100.352 59.392A122.88 122.88 0 0 0 204.8 655.36a122.88 122.88 0 1 0 122.88 122.88 122.88 122.88 0 0 0-4.9152-32.768l94.208-56.1152a163.84 163.84 0 0 0 231.0144 0l94.208 56.1152A122.88 122.88 0 1 0 860.16 655.36zM204.8 819.2a40.96 40.96 0 1 1 0-81.92 40.96 40.96 0 0 1 0 81.92z m327.68-655.36a40.96 40.96 0 1 1 0 81.92 40.96 40.96 0 0 1 0-81.92z m0 491.52a81.92 81.92 0 1 1 0-163.84 81.92 81.92 0 0 1 0 163.84z m327.68 163.84a40.96 40.96 0 1 1 0-81.92 40.96 40.96 0 0 1 0 81.92z" p-id="6070"></path></svg>
