<svg t="1701228866247" class="icon" viewBox="0 0 1024 1024" version="1.1" xmlns="http://www.w3.org/2000/svg" p-id="21388" width="200" height="200"><path d="M800.235 449.955H225.464c-17.673 0-32-14.327-32-32s14.327-32 32-32H722.98l-56.906-56.907c-12.497-12.497-12.497-32.758 0-45.255 12.496-12.497 32.758-12.497 45.254 0l111.535 111.534a32.002 32.002 0 0 1-22.628 54.628zM336.112 753.044c-8.189 0-16.379-3.124-22.627-9.372L201.95 632.138a32.001 32.001 0 0 1 22.523-54.628l576.411-1.862h0.106c17.625 0 31.94 14.258 31.997 31.896 0.057 17.673-14.224 32.046-31.896 32.104l-499.508 1.613 57.155 57.155c12.497 12.497 12.497 32.759 0 45.256-6.247 6.248-14.437 9.372-22.626 9.372z" p-id="21389"></path><path d="M960.804 960.335l-895.429-0.817 0.667-319.619 64 0.133-0.533 255.545 767.428 0.7 0.534-256.378 64 0.133-0.667 320.303z m0.667-576.545h-64V127.435l-767.429 0.701V383.79h-64V64.194l895.429-0.818V383.79z" p-id="21390"></path></svg>
