<svg t="1698946541224" class="icon" viewBox="0 0 1024 1024" version="1.1" xmlns="http://www.w3.org/2000/svg" p-id="10273" width="200" height="200"><path d="M536.96 407.04A28.16 28.16 0 0 0 512 379.52H310.4a27.52 27.52 0 0 0-28.16 27.52 28.16 28.16 0 0 0 28.16 28.16H512a28.16 28.16 0 0 0 28.16-28.16zM536.96 526.08A28.16 28.16 0 0 0 512 497.92H310.4a28.16 28.16 0 0 0 0 56.32H512a28.16 28.16 0 0 0 28.16-28.16zM536.96 644.48A28.16 28.16 0 0 0 512 616.96H310.4a28.16 28.16 0 1 0 0 55.68H512a28.16 28.16 0 0 0 28.16-28.16z" fill="#ffffff" p-id="10274"></path><path d="M634.88 931.84a33.92 33.92 0 0 1-33.92-35.84V128h-384v768a34.56 34.56 0 0 1-68.48 0V119.04A54.4 54.4 0 0 1 204.8 64h409.6a55.04 55.04 0 0 1 55.04 55.04V896a34.56 34.56 0 0 1-34.56 35.84z" fill="#ffffff" p-id="10275"></path><path d="M840.32 960a34.56 34.56 0 0 1-34.56-34.56V473.6L617.6 360.32a33.92 33.92 0 0 1-12.16-46.72 34.56 34.56 0 0 1 47.36-11.52l204.8 122.88a33.92 33.92 0 0 1 16.64 29.44v471.04a34.56 34.56 0 0 1-33.92 34.56z" fill="#ffffff" p-id="10276"></path><path d="M922.24 960H101.76a34.56 34.56 0 0 1 0-68.48h820.48a34.56 34.56 0 0 1 0 68.48z" fill="#ffffff" p-id="10277"></path></svg>
